# xmcd
#
# Track frame offsets: 
#        150
#        11832
#        36677
#        54737
#        74642
#        92170
#        103367
#        118692
#        138052
#        155102
#        172315
#        186475
#        211775
#        240075
#        263638
#        281028
#
# Disc length: 4419 seconds
#
# Revision: 0
# Processed by: cddbd v1.5.1PL0 Copyright (c) Steve Scherf et al.
# Submitted via: ExactAudioCopy v0.95a5
#
DISCID=fa114110
DTITLE=Ben Harper - Welcome To The Cruel World
DYEAR=1994
DGENRE=Rock
TTITLE0=The Three of Us
TTITLE1=Whipping Boy
TTITLE2=Breakin' Down
TTITLE3=Don't Take That Attitude to Your Grave
TTITLE4=Waiting on an Angel
TTITLE5=Mama's Got a Girlfriend Now
TTITLE6=Forever
TTITLE7=Like a King
TTITLE8=Pleasure and Pain
TTITLE9=Walk Away
TTITLE10=How Many Miles Must We March
TTITLE11=Welcome to the Cruel World
TTITLE12=I'll Rise
TTITLE13=[Live] Faded
TTITLE14=[Live]
TTITLE15=[Live]
EXTD=1994 - Virgin               >>> and 3 bonus live tracks (not on the
EXTD=original CD]\n--------------------------------------------------
EXTD=----------------------------------------------------------------
EXTD=---------------------------------------\nThe full range of Harpe
EXTD=r's influences would not come to bear until later albums, but thi
EXTD=s debut lays \na strong foundation. "Like a King" and "Take That 
EXTD=Attitude to Your Grave" burn with a political \nconviction rarely
EXTD=heard during the 1990s. "Forever" has a tenderness which demonst
EXTD=rates Harper's \nemotional range. Lackluster hippie jams that cul
EXTD=tivated his early following may have served a purpose, \nbut feel
EXTD=fluffy by comparison when compared to the meatier tracks. Ben cl
EXTD=oses the album with a song \nthat frequently closes his concerts,
EXTD="I'll Rise." This song, built around Maya Angelou's 1979 poem \n
EXTD="And Still I Rise," reminds us of art's ability to pierce through
EXTD=society, self, and the soul.\n----------------------------------
EXTD=----------------------------------------------------------------
EXTD=-------------------------------------------------------
EXTT0=
EXTT1=
EXTT2=
EXTT3=
EXTT4=
EXTT5=
EXTT6=
EXTT7=
EXTT8=
EXTT9=
EXTT10=
EXTT11=
EXTT12=
EXTT13=
EXTT14=
EXTT15=
PLAYORDER=
